<?xml version="1.0" encoding="utf-8"?>
<!-- Generator: Adobe Illustrator 28.0.0, SVG Export Plug-In . SVG Version: 6.00 Build 0)  -->
<svg version="1.1" id="Capa_1" xmlns="http://www.w3.org/2000/svg" xmlns:xlink="http://www.w3.org/1999/xlink" x="0px" y="0px"
	 viewBox="0 0 982.1 237.5" style="enable-background:new 0 0 982.1 237.5;" xml:space="preserve">
<style type="text/css">
	.st0{fill:#FFFFFF;}
</style>
<g>
	<g>
		<path class="st0" d="M24.8,223h27.4V28.4H24.8v-4.6h85.1v4.6H82.4V223h66c17.3,0,18.8-16.3,25.3-56.4h4.9c0,0-4.6,27.1-4.6,61
			H24.8V223z"/>
		<path class="st0" d="M223.9,159.2c0,52.4,12.3,66,36.7,66c22.2,0,43.5-14.5,43.5-37.3h4.9c0,17.9-11.7,31.8-29,38.2
			c-6.8,2.5-12.9,3.7-22.2,3.7c-37.9,0-62.6-20.7-62.6-71.2c0-52.4,25.3-71.8,62.3-71.8c34.8,0,54.6,17.3,54.6,55.5v12.3h-88.2
			L223.9,159.2L223.9,159.2z M285.3,149.9v-12.3c0-29-5.9-46.9-27.7-46.9c-23.1,0-32.4,20.3-33.3,59.2H285.3L285.3,149.9z"/>
		<path class="st0" d="M345.1,93.5h-20.7v-4.6h9.9c21,0,33.3-30.5,33.3-49h4.6v49h36.1v4.6h-36.1v103.9c0,17,3.1,25.6,15.4,25.6
			c7.4,0,19.4-3.1,19.4-22.5h4.6c0,13.6-6.2,29.3-30.8,29.3c-25.9,0-35.8-16.3-35.8-40.1V93.5H345.1z"/>
		<path class="st0" d="M450.8,159.2c0,52.4,12.3,66,36.7,66c22.2,0,43.5-14.5,43.5-37.3h4.9c0,17.9-11.7,31.8-29,38.2
			c-6.8,2.5-12.9,3.7-22.2,3.7c-37.9,0-62.6-20.7-62.6-71.2c0-52.4,25.3-71.8,62.3-71.8c34.8,0,54.6,17.3,54.6,55.5v12.3h-88.2
			V159.2z M512.2,149.9v-12.3c0-29-5.9-46.9-27.7-46.9c-23.1,0-32.4,20.3-33.3,59.2H512.2L512.2,149.9z"/>
		<path class="st0" d="M553.2,223h21.6V10.9h-21.6V6.2h48.7V223h21.6v4.6h-70.3V223L553.2,223z"/>
		<path class="st0" d="M638,223h21.6V93.5H638v-4.6h48.7V223h21.6v4.6H638V223z M671,20.7c8.9,0,16.6,7.7,16.6,16.6
			s-7.7,16.6-16.6,16.6c-8.9,0-16.6-7.7-16.6-16.6C654.3,28.4,662,20.7,671,20.7z"/>
		<path class="st0" d="M753.6,159.2c0,52.4,12.3,66,36.7,66c22.2,0,43.5-14.5,43.5-37.3h4.9c0,17.9-11.7,31.8-29,38.2
			c-6.8,2.5-12.9,3.7-22.2,3.7c-37.9,0-62.6-20.7-62.6-71.2c0-52.4,25.3-71.8,62.3-71.8c34.8,0,54.6,17.3,54.6,55.5v12.3h-88.2
			V159.2L753.6,159.2z M814.9,149.9v-12.3c0-29-5.9-46.9-27.7-46.9c-23.1,0-32.4,20.3-33.3,59.2H814.9L814.9,149.9z"/>
		<path class="st0" d="M857.5,223h21.6V93.5h-21.6v-4.6h48.1v32.7h0.6c5.5-16,17.9-34.8,39.8-34.8c16.3,0,29.3,10.8,29.3,28.1
			c0,15.1-9.6,24.4-21.9,24.4c-3.4,0-6.5,0-10.5-1.8V135c8.9,1.5,10.5-9.6,10.5-18.2c0-15.4-4.9-23.4-14.2-23.4
			c-8.6,0-16.6,7.4-22.5,17c-6.8,11.1-10.5,24.7-10.5,34.2V223h24.7v4.6h-73.4L857.5,223L857.5,223z"/>
	</g>
</g>
</svg>
