<?xml version="1.0" encoding="utf-8"?>
<!-- Generator: Adobe Illustrator 23.0.5, SVG Export Plug-In . SVG Version: 6.00 Build 0)  -->
<svg version="1.1" id="Capa_1" xmlns="http://www.w3.org/2000/svg" xmlns:xlink="http://www.w3.org/1999/xlink" x="0px" y="0px"
	 viewBox="0 0 1080 1080" enable-background="new 0 0 1080 1080" xml:space="preserve">
<g>
	<g>
		<path fill="#333333" d="M62.457,671.075h27.439V476.536H62.457v-4.625h85.092v4.625H120.11v194.539h65.977
			c17.266,0,18.807-16.34,25.281-56.419h4.934c0,0-4.625,27.131-4.625,61.044H62.457V671.075z"/>
		<path fill="#333333" d="M261.619,607.257c0,52.411,12.332,65.977,36.688,65.977c22.197,0,43.471-14.49,43.471-37.305h4.933
			c0,17.882-11.716,31.756-28.98,38.229c-6.782,2.467-12.948,3.7-22.198,3.7c-37.921,0-62.586-20.656-62.586-71.219
			c0-52.411,25.281-71.834,62.278-71.834c34.838,0,54.569,17.265,54.569,55.494v12.332h-88.175V607.257z M322.971,598.008v-12.332
			c0-28.98-5.857-46.862-27.747-46.862c-23.123,0-32.372,20.348-33.297,59.194H322.971z"/>
		<path fill="#333333" d="M382.776,541.588H362.12v-4.624h9.866c20.964,0,33.297-30.522,33.297-49.021h4.624v49.021h36.072v4.624
			h-36.072v103.898c0,16.957,3.084,25.589,15.416,25.589c7.398,0,19.423-3.083,19.423-22.506h4.624
			c0,13.565-6.166,29.289-30.83,29.289c-25.897,0-35.764-16.34-35.764-40.079V541.588z"/>
		<path fill="#333333" d="M488.523,607.257c0,52.411,12.332,65.977,36.688,65.977c22.197,0,43.471-14.49,43.471-37.305h4.933
			c0,17.882-11.716,31.756-28.98,38.229c-6.782,2.467-12.948,3.7-22.198,3.7c-37.921,0-62.586-20.656-62.586-71.219
			c0-52.411,25.281-71.834,62.278-71.834c34.838,0,54.569,17.265,54.569,55.494v12.332h-88.175V607.257z M549.876,598.008v-12.332
			c0-28.98-5.857-46.862-27.747-46.862c-23.123,0-32.372,20.348-33.297,59.194H549.876z"/>
		<path fill="#333333" d="M590.875,671.075h21.581V458.963h-21.581v-4.625h48.712v216.737h21.582v4.625h-70.294V671.075z"/>
		<path fill="#333333" d="M675.655,671.075h21.58V541.588h-21.58v-4.624h48.711v134.111h21.582v4.625h-70.293V671.075z
			 M708.643,468.828c8.94,0,16.648,7.708,16.648,16.648c0,8.941-7.708,16.648-16.648,16.648c-8.941,0-16.648-7.707-16.648-16.648
			C691.995,476.536,699.702,468.828,708.643,468.828z"/>
		<path fill="#333333" d="M791.266,607.257c0,52.411,12.332,65.977,36.688,65.977c22.198,0,43.471-14.49,43.471-37.305h4.933
			c0,17.882-11.715,31.756-28.98,38.229c-6.783,2.467-12.949,3.7-22.197,3.7c-37.922,0-62.586-20.656-62.586-71.219
			c0-52.411,25.281-71.834,62.277-71.834c34.838,0,54.569,17.265,54.569,55.494v12.332h-88.175V607.257z M852.619,598.008v-12.332
			c0-28.98-5.858-46.862-27.747-46.862c-23.123,0-32.372,20.348-33.297,59.194H852.619z"/>
		<path fill="#333333" d="M895.159,671.075h21.582V541.588h-21.582v-4.624h48.096v32.68h0.617
			c5.549-16.031,17.881-34.838,39.771-34.838c16.34,0,29.289,10.79,29.289,28.056c0,15.106-9.558,24.355-21.89,24.355
			c-3.392,0-6.475,0-10.482-1.85V582.9c8.941,1.542,10.482-9.557,10.482-18.189c0-15.415-4.934-23.432-14.182-23.432
			c-8.633,0-16.648,7.399-22.507,16.957c-6.782,11.099-10.481,24.664-10.481,34.222v78.617h24.664v4.625h-73.377V671.075z"/>
	</g>
</g>
</svg>
